<?xml version="1.0" ?><!DOCTYPE svg  PUBLIC '-//W3C//DTD SVG 1.1//EN'  'http://www.w3.org/Graphics/SVG/1.1/DTD/svg11.dtd'><svg id="Layer_1" style="enable-background:new 0 0 76 76;" version="1.1" viewBox="0 0 76 76" xml:space="preserve" xmlns="http://www.w3.org/2000/svg" xmlns:xlink="http://www.w3.org/1999/xlink"><style type="text/css">
	.st0{fill:#3DA5AA;}
	.st1{fill:#EDEFF4;}
	.st2{fill:#543D53;}
	.st3{fill:#EF716F;}
	.st4{fill:#F2E199;}
	.st5{fill:#6D7C7C;}
	.st6{fill:#E1E3EA;}
	.st7{fill:#FFFFFF;}
	.st8{fill:#F7796B;}
	.st9{opacity:0.3;}
	.st10{fill:#E8635E;}
	.st11{fill:#CC4848;}
	.st12{fill:#8E8D96;}
	.st13{fill:#E26959;}
	.st14{fill:#A3E2E5;}
	.st15{fill:#E5C67A;}
	.st16{fill:#FC7D70;}
	.st17{fill:none;stroke:#543D53;stroke-width:1.5;stroke-linecap:round;stroke-linejoin:round;stroke-miterlimit:10;}
	.st18{fill:#FFFFFF;stroke:#543D53;stroke-width:1.5;stroke-linecap:round;stroke-linejoin:round;stroke-miterlimit:10;}
	.st19{fill:#97C97D;}
	.st20{fill:#BEEAA2;}
	.st21{fill:#F0C419;}
	.st22{fill:#DDDDE7;}
	.st23{fill:#89BC6C;}
	.st24{fill:#EDEFF4;stroke:#543D53;stroke-width:1.5;stroke-linecap:round;stroke-linejoin:round;stroke-miterlimit:10;}
	.st25{fill:#9B9BA5;}
	.st26{fill:#F77F7F;}
	.st27{fill:#A3E2E5;stroke:#543D53;stroke-width:1.5;stroke-linecap:round;stroke-linejoin:round;stroke-miterlimit:10;}
	.st28{fill:#EF716F;stroke:#543D53;stroke-width:1.5;stroke-linecap:round;stroke-linejoin:round;stroke-miterlimit:10;}
	.st29{fill:#3DA5AA;stroke:#543D53;stroke-width:1.5;stroke-linecap:round;stroke-linejoin:round;stroke-miterlimit:10;}
	.st30{fill:#70737F;stroke:#543D53;stroke-width:1.5;stroke-linecap:round;stroke-linejoin:round;stroke-miterlimit:10;}
	.st31{fill:#6D7C7C;stroke:#543D53;stroke-width:1.5;stroke-linecap:round;stroke-linejoin:round;stroke-miterlimit:10;}
	.st32{fill:#E1E3EA;stroke:#543D53;stroke-width:1.5;stroke-linecap:round;stroke-linejoin:round;stroke-miterlimit:10;}
	.st33{fill:#F2E199;stroke:#543D53;stroke-width:1.5;stroke-linecap:round;stroke-linejoin:round;stroke-miterlimit:10;}
	.st34{fill:#E5C67A;stroke:#543D53;stroke-width:1.5;stroke-linecap:round;stroke-linejoin:round;stroke-miterlimit:10;}
	.st35{fill:#8E8D96;stroke:#543D53;stroke-width:1.5;stroke-linecap:round;stroke-linejoin:round;stroke-miterlimit:10;}
	.st36{fill:#533D53;}
	.st37{opacity:0.3;fill:#3DA5AA;}
	.st38{fill:none;stroke:#533D53;stroke-width:1.5;stroke-linecap:round;stroke-linejoin:round;stroke-miterlimit:10;}
	.st39{opacity:0.5;}
	.st40{fill:#E0C74C;}
	.st41{fill:#EACE7F;}
</style><g><circle class="st1" cx="38" cy="38" r="32"/><path class="st7" d="M57.7,45.2l-35.2,0c-2.4,0-4.3,1.9-4.3,4.2v0c0,2.3,1.9,4.2,4.3,4.2l35.2,0C54.5,53.6,54.5,45.2,57.7,45.2z"/><path class="st2" d="M57.7,54.4H22.5c-2.8,0-5-2.2-5-5s2.2-5,5-5h35.2c0.4,0,0.8,0.3,0.8,0.8s-0.3,0.8-0.8,0.8   c-1,0-1.6,1.8-1.6,3.5s0.6,3.5,1.6,3.5c0.4,0,0.8,0.3,0.8,0.8S58.1,54.4,57.7,54.4z M22.5,45.9c-1.9,0-3.5,1.6-3.5,3.5   s1.6,3.5,3.5,3.5h32.8c-0.5-1-0.8-2.2-0.8-3.5s0.3-2.5,0.8-3.5H22.5z"/><line class="st7" x1="55.3" x2="23.6" y1="49.4" y2="49.4"/><path class="st2" d="M55.3,50.1H23.6c-0.4,0-0.8-0.3-0.8-0.8s0.3-0.8,0.8-0.8h31.7c0.4,0,0.8,0.3,0.8,0.8S55.7,50.1,55.3,50.1z"/><path class="st11" d="M18.3,12.8v36.6c0-2.3,1.9-4.2,4.3-4.2H25V8.8C22.6,9.8,20.3,11.2,18.3,12.8z"/><path class="st2" d="M24.3,9.1v35.3h-1.7c-1.4,0-2.6,0.5-3.5,1.4V12.2c-0.5,0.4-1,0.8-1.5,1.2v36c0,0.4,0.3,0.8,0.8,0.8   s0.8-0.3,0.8-0.8c0-1.9,1.6-3.5,3.5-3.5H25c0.4,0,0.8-0.3,0.8-0.8V8.4C25.2,8.6,24.7,8.9,24.3,9.1z"/><path class="st3" d="M57.7,12.8C52.3,8.5,45.4,6,38,6c-4.6,0-9,1-13,2.8v36.4h32.7V12.8z"/><path class="st2" d="M57,12.2v32.2H25.8v-36c-0.5,0.2-1,0.4-1.5,0.7v36.1c0,0.4,0.3,0.8,0.8,0.8h32.7c0.4,0,0.8-0.3,0.8-0.8V13.4   C58,13,57.5,12.6,57,12.2z"/><rect class="st7" height="8.4" width="16.5" x="33.1" y="14.2"/><path class="st2" d="M49.6,23.3H33.1c-0.4,0-0.8-0.3-0.8-0.8v-8.4c0-0.4,0.3-0.8,0.8-0.8h16.5c0.4,0,0.8,0.3,0.8,0.8v8.4   C50.4,22.9,50,23.3,49.6,23.3z M33.9,21.8h15v-6.9h-15V21.8z"/></g></svg>